<svg width="24" height="24" viewBox="0 0 24 24" fill="none" xmlns="http://www.w3.org/2000/svg">
  <path d="M12 11a3 3 0 1 0 0-6 3 3 0 0 0 0 6Z" fill="white"/>
  <path d="M5.5 10a2.5 2.5 0 1 0 0-5 2.5 2.5 0 0 0 0 5ZM18.5 10a2.5 2.5 0 1 0 0-5 2.5 2.5 0 0 0 0 5Z" fill="white" fill-opacity=".75"/>
  <path d="M12 12.5c-3.3 0-6 2.3-6 5.1 0 .8.6 1.4 1.4 1.4h9.2c.8 0 1.4-.6 1.4-1.4 0-2.8-2.7-5.1-6-5.1Z" fill="white"/>
  <path d="M4.7 11.7C2.1 12 0 13.9 0 16.2c0 .7.5 1.3 1.2 1.3h2.9c.1-2.2 1.3-4.1 3.2-5.2-.8-.4-1.7-.6-2.6-.6ZM19.3 11.7c-.9 0-1.8.2-2.6.6 1.9 1.1 3.1 3 3.2 5.2h2.9c.7 0 1.2-.6 1.2-1.3 0-2.3-2.1-4.2-4.7-4.5Z" fill="white" fill-opacity=".75"/>
</svg>
