<svg xmlns="http://www.w3.org/2000/svg" width="22" height="20" viewBox="0 0 22 20">
  <path fill="#ffffff" d="M21.307,8.051C21.286,7.945 21.243,7.845 21.18,7.758C21.117,7.671 21.036,7.598 20.942,7.545L18.146,5.951L18.134,2.799C18.134,2.69 18.11,2.583 18.064,2.485C18.018,2.386 17.952,2.299 17.869,2.229C16.855,1.371 15.686,0.713 14.427,0.291C14.327,0.258 14.222,0.245 14.118,0.255C14.014,0.264 13.912,0.296 13.821,0.347L11,1.923L8.176,0.344C8.085,0.292 7.983,0.261 7.879,0.251C7.774,0.242 7.669,0.254 7.57,0.287C6.311,0.712 5.144,1.372 4.131,2.233C4.048,2.303 3.982,2.39 3.936,2.488C3.89,2.586 3.866,2.693 3.866,2.802L3.852,5.957L1.055,7.55C0.961,7.604 0.88,7.676 0.817,7.764C0.755,7.851 0.711,7.951 0.69,8.057C0.434,9.343 0.434,10.667 0.69,11.953C0.711,12.058 0.755,12.158 0.817,12.246C0.88,12.333 0.961,12.406 1.055,12.459L3.852,14.053L3.863,17.206C3.863,17.314 3.887,17.421 3.933,17.52C3.979,17.618 4.045,17.705 4.128,17.776C5.142,18.634 6.311,19.291 7.571,19.713C7.67,19.747 7.775,19.759 7.879,19.75C7.984,19.74 8.085,19.709 8.176,19.658L11,18.076L13.824,19.656C13.935,19.719 14.061,19.751 14.189,19.75C14.271,19.75 14.353,19.737 14.43,19.711C15.689,19.286 16.856,18.626 17.869,17.767C17.952,17.697 18.018,17.61 18.064,17.512C18.11,17.413 18.134,17.306 18.134,17.198L18.148,14.043L20.945,12.45C21.038,12.396 21.119,12.324 21.182,12.236C21.245,12.149 21.289,12.049 21.31,11.943C21.564,10.658 21.563,9.336 21.307,8.051ZM11,13.75C10.258,13.75 9.533,13.53 8.917,13.118C8.3,12.706 7.819,12.12 7.535,11.435C7.252,10.75 7.177,9.996 7.322,9.268C7.467,8.541 7.824,7.873 8.348,7.348C8.873,6.824 9.541,6.467 10.268,6.322C10.996,6.177 11.75,6.252 12.435,6.535C13.12,6.819 13.706,7.3 14.118,7.917C14.53,8.533 14.75,9.258 14.75,10C14.75,10.995 14.355,11.948 13.652,12.652C12.948,13.355 11.995,13.75 11,13.75Z"/>
</svg>
